<?xml version="1.0" encoding="UTF-8" standalone="no"?>
<!DOCTYPE svg PUBLIC "-//W3C//DTD SVG 1.1//EN" "http://www.w3.org/Graphics/SVG/1.1/DTD/svg11.dtd">
<svg width="100%" height="100%" viewBox="0 0 853 83" version="1.1" xmlns="http://www.w3.org/2000/svg" xmlns:xlink="http://www.w3.org/1999/xlink" xml:space="preserve" xmlns:serif="http://www.serif.com/" style="fill-rule:evenodd;clip-rule:evenodd;stroke-linejoin:round;stroke-miterlimit:2;">
    <g transform="matrix(1,0,0,1,-0.991322,-0.512525)">
        <g transform="matrix(0.792895,0,0,0.16756,0,0)">
            <g transform="matrix(1.2612,0,0,5.968,-302.47,-979.939)">
                <g transform="matrix(125,0,0,125,239.598,246.743)">
                    <path d="M0.894,-0.419C0.894,-0.369 0.88,-0.323 0.851,-0.284C0.823,-0.244 0.786,-0.215 0.74,-0.198L0.894,-0L0.683,-0L0.551,-0.183L0.21,-0.183L0.21,-0L0.01,-0L0.01,-0.656L0.657,-0.656C0.701,-0.656 0.741,-0.646 0.776,-0.624C0.812,-0.603 0.841,-0.574 0.862,-0.539C0.883,-0.503 0.894,-0.463 0.894,-0.419ZM0.21,-0.511L0.21,-0.328L0.603,-0.328C0.628,-0.328 0.649,-0.337 0.667,-0.355C0.684,-0.373 0.693,-0.394 0.693,-0.419C0.693,-0.444 0.684,-0.466 0.667,-0.484C0.649,-0.502 0.628,-0.511 0.603,-0.511L0.21,-0.511Z" style="fill:rgb(250,250,250);fill-rule:nonzero;"/>
                </g>
                <g transform="matrix(125,0,0,125,343.48,246.743)">
                    <path d="M0.716,-0.656L0.942,-0.656L0.576,-0.226L0.576,-0L0.376,-0L0.376,-0.226L0.01,-0.656L0.236,-0.656L0.476,-0.361L0.716,-0.656Z" style="fill:rgb(250,250,250);fill-rule:nonzero;"/>
                </g>
                <g transform="matrix(125,0,0,125,438.817,246.743)">
                    <path d="M0.654,-0.656L1.006,-0L0.783,-0L0.714,-0.137L0.301,-0.137L0.232,-0L0.01,-0L0.362,-0.656L0.654,-0.656ZM0.647,-0.27L0.508,-0.549L0.368,-0.27L0.647,-0.27Z" style="fill:rgb(250,250,250);fill-rule:nonzero;"/>
                </g>
                <g transform="matrix(125,0,0,125,565.77,246.743)">
                    <path d="M0.939,-0L0.677,-0L0.21,-0.523L0.21,-0L0.01,-0L0.01,-0.656L0.344,-0.656L0.739,-0.197L0.739,-0.656L0.939,-0.656L0.939,-0Z" style="fill:rgb(250,250,250);fill-rule:nonzero;"/>
                </g>
                <g transform="matrix(125,0,0,125,745.457,246.743)">
                    <path d="M0.575,-0.146C0.623,-0.146 0.663,-0.163 0.693,-0.197C0.724,-0.231 0.739,-0.274 0.739,-0.328C0.739,-0.382 0.724,-0.426 0.693,-0.459C0.663,-0.493 0.623,-0.51 0.575,-0.51L0.21,-0.51L0.21,-0.146L0.575,-0.146ZM0.629,-0.656C0.688,-0.656 0.741,-0.642 0.788,-0.613C0.835,-0.584 0.872,-0.545 0.899,-0.496C0.926,-0.446 0.939,-0.39 0.939,-0.328C0.939,-0.266 0.926,-0.21 0.899,-0.16C0.872,-0.111 0.835,-0.072 0.788,-0.043C0.741,-0.014 0.688,-0 0.629,-0L0.01,-0L0.01,-0.656L0.629,-0.656Z" style="fill:rgb(250,250,250);fill-rule:nonzero;"/>
                </g>
                <g transform="matrix(125,0,0,125,871.373,246.743)">
                    <path d="M0.821,-0.525L0.21,-0.525L0.21,-0.391L0.821,-0.391L0.821,-0.266L0.21,-0.266L0.21,-0.132L0.821,-0.132L0.821,-0L0.01,-0L0.01,-0.656L0.821,-0.656L0.821,-0.525Z" style="fill:rgb(250,250,250);fill-rule:nonzero;"/>
                </g>
                <g transform="matrix(125,0,0,125,975.194,246.743)">
                    <path d="M0.716,-0.656L0.942,-0.656L0.576,-0.226L0.576,-0L0.376,-0L0.376,-0.226L0.01,-0.656L0.236,-0.656L0.476,-0.361L0.716,-0.656Z" style="fill:rgb(250,250,250);fill-rule:nonzero;"/>
                </g>
            </g>
        </g>
    </g>
</svg>
